<svg width="18" height="18" viewBox="0 0 18 18" fill="none" xmlns="http://www.w3.org/2000/svg">
<path d="M13 11.0625H12.21L11.93 10.7925C12.91 9.6525 13.5 8.1725 13.5 6.5625C13.5 2.9725 10.59 0.0625 7 0.0625C3.41 0.0625 0.5 2.9725 0.5 6.5625C0.5 10.1525 3.41 13.0625 7 13.0625C8.61 13.0625 10.09 12.4725 11.23 11.4925L11.5 11.7725V12.5625L16.5 17.5525L17.99 16.0625L13 11.0625ZM7 11.0625C4.51 11.0625 2.5 9.0525 2.5 6.5625C2.5 4.0725 4.51 2.0625 7 2.0625C9.49 2.0625 11.5 4.0725 11.5 6.5625C11.5 9.0525 9.49 11.0625 7 11.0625Z" fill="#A0A0A0"/>
</svg>
