<svg width="28" height="28" viewBox="0 0 28 28" fill="none" xmlns="http://www.w3.org/2000/svg">
<path d="M12.667 17.9993H15.3337V20.666H12.667V17.9993ZM12.667 7.33268H15.3337V15.3327H12.667V7.33268ZM13.987 0.666016C6.62699 0.666016 0.666992 6.63935 0.666992 13.9993C0.666992 21.3594 6.62699 27.3327 13.987 27.3327C21.3603 27.3327 27.3337 21.3594 27.3337 13.9993C27.3337 6.63935 21.3603 0.666016 13.987 0.666016ZM14.0003 24.666C8.10699 24.666 3.33366 19.8927 3.33366 13.9993C3.33366 8.10602 8.10699 3.33268 14.0003 3.33268C19.8937 3.33268 24.667 8.10602 24.667 13.9993C24.667 19.8927 19.8937 24.666 14.0003 24.666Z" fill="#5290EC"/>
</svg>
