<svg width="36" height="37" viewBox="0 0 36 37" fill="none" xmlns="http://www.w3.org/2000/svg">
<path d="M18.0016 7.43811C24.352 7.43811 29.5216 12.6077 29.5216 18.9581C29.5216 25.3085 24.352 30.4781 18.0016 30.4781C11.6512 30.4781 6.48156 25.3085 6.48156 18.9581C6.48156 12.6077 11.6512 7.43811 18.0016 7.43811ZM18.0016 4.55811C10.0528 4.55811 3.60156 11.0093 3.60156 18.9581C3.60156 26.9069 10.0528 33.3581 18.0016 33.3581C25.9504 33.3581 32.4016 26.9069 32.4016 18.9581C32.4016 11.0093 25.9504 4.55811 18.0016 4.55811ZM19.4416 18.9581V13.1981H16.5616V18.9581H12.2416L18.0016 24.7181L23.7616 18.9581H19.4416Z" fill="white"/>
</svg>
