<svg width="36" height="36" viewBox="0 0 36 36" fill="none" xmlns="http://www.w3.org/2000/svg">
<path d="M18.0016 29.4301C24.352 29.4301 29.5216 24.2605 29.5216 17.9101C29.5216 11.5597 24.352 6.39006 18.0016 6.39006C11.6512 6.39006 6.48156 11.5597 6.48156 17.9101C6.48156 24.2605 11.6512 29.4301 18.0016 29.4301ZM18.0016 32.3101C10.0528 32.3101 3.60156 25.8589 3.60156 17.9101C3.60156 9.96126 10.0528 3.51006 18.0016 3.51006C25.9504 3.51006 32.4016 9.96126 32.4016 17.9101C32.4016 25.8589 25.9504 32.3101 18.0016 32.3101ZM19.4416 17.9101V23.6701H16.5616V17.9101H12.2416L18.0016 12.1501L23.7616 17.9101H19.4416Z" fill="white"/>
</svg>
